PathFileType	4	(X/Y/Z)	TVC_58_BWA_03_walk_RCNL2025.trc
DataRate	CameraRate	NumFrames	NumMarkers	Units	OrigDataRate	OrigDataStartFrame	OrigNumFrames
100	100	9	27	mm	100	294	335
Frame#	Time	R_Shoulder			L_Shoulder			C7			J_Notch			R_Elbow			L_Elbow			R_Wrist			L_Wrist			R_Asis			L_Asis			R_Psis			L_Psis			Sacral			Thoracic			Sternum			R_Thigh_Lateral			R_Knee_Lateral			R_Shank_Lateral			R_Ankle_Lateral			R_Heel			R_Toe			L_Thigh_Lateral			L_Knee_Lateral			L_Shank_Lateral			L_Ankle_Lateral			L_Heel			L_Toe		
		X1	Y1	Z1	X2	Y2	Z2	X3	Y3	Z3	X4	Y4	Z4	X5	Y5	Z5	X6	Y6	Z6	X7	Y7	Z7	X8	Y8	Z8	X9	Y9	Z9	X10	Y10	Z10	X11	Y11	Z11	X12	Y12	Z12	X13	Y13	Z13	X14	Y14	Z14	X15	Y15	Z15	X16	Y16	Z16	X17	Y17	Z17	X18	Y18	Z18	X19	Y19	Z19	X20	Y20	Z20	X21	Y21	Z21	X22	Y22	Z22	X23	Y23	Z23	X24	Y24	Z24	X25	Y25	Z25	X26	Y26	Z26	X27	Y27	Z27
294	2.93000000	572.561157	1335.945435	339.408875	568.071838	1352.126953	-16.384464	511.840607	1415.014893	156.266754	652.940369	1311.250977	161.119263	574.805542	1018.852600	413.889099	481.754059	1036.210205	-77.757401	697.073303	800.436798	441.659958	580.924988	807.776337	-137.921204	661.724304	906.811829	302.477570	657.953796	903.721191	-13.388412	433.531433	949.781799	206.269241	430.451416	934.643555	97.057243	431.991425	942.212677	151.663242	448.472137	1112.374756	152.485626	743.099304	1074.330200	143.648117	614.449707	691.880615	381.726135	587.170532	460.301544	298.255554	533.145691	259.568329	335.809570	467.501434	68.571358	239.094589	410.983765	65.411484	188.376373	589.921509	45.953373	202.495026	644.922302	660.483704	-79.251511	780.628052	491.738068	13.073129	736.724365	309.422211	-41.662540	648.896484	100.180168	38.994587	603.803162	100.723274	90.087349	779.336487	60.795238	60.594147
295	2.94000000	581.016846	1335.384644	339.131165	576.218506	1351.324463	-16.590313	520.150879	1414.218384	156.025391	661.121155	1310.314087	160.910629	586.484741	1018.639893	414.275116	488.298676	1035.728638	-77.386856	710.938629	801.333405	441.102448	586.799042	806.746765	-137.320816	668.709412	905.904724	302.558990	666.147156	903.406433	-13.221773	441.045013	949.744202	205.708023	438.078949	934.461365	96.462662	439.561981	942.102783	151.085342	456.225006	1111.720459	152.265488	750.865906	1073.593872	143.915314	619.143188	691.229980	381.776703	588.973816	459.896820	298.517944	533.274353	259.670746	336.259644	467.560669	68.724449	239.140411	411.028656	65.736092	188.401398	589.873474	45.876389	202.515015	652.735107	660.133667	-79.589767	788.558960	491.904694	13.493862	755.552490	308.137756	-41.568398	680.300049	93.884590	38.481163	634.875793	92.008179	89.265717	812.783081	61.780365	60.845928
296	2.95000000	589.378601	1334.680054	338.792786	584.452026	1350.380981	-16.860222	528.441956	1413.302979	155.694672	669.308167	1309.278564	160.674576	597.998352	1018.288574	414.512970	495.050964	1035.094482	-77.101662	724.635345	802.129364	440.411987	592.613678	805.504944	-136.767464	675.789551	904.891357	302.589203	674.524292	902.852539	-13.033421	448.612091	949.581726	205.020615	445.810760	934.104065	95.740051	447.211426	941.842896	150.380333	464.031555	1110.926025	151.926544	758.729492	1072.738281	144.223007	623.958984	690.560364	381.845795	590.864563	459.463196	298.767761	533.421814	259.754120	336.712311	467.625641	68.904961	239.175095	411.088287	66.115166	188.401123	589.815063	45.794182	202.533829	660.265137	659.546692	-80.089806	796.109741	491.675751	13.817012	773.801025	307.276245	-41.668392	711.192871	88.519905	37.920563	665.576111	84.233849	88.427727	845.440308	63.604507	60.937511
297	2.96000000	597.647583	1333.833252	338.394043	592.770447	1349.294189	-17.197046	536.712341	1412.277100	155.273865	677.501648	1308.150391	160.407501	609.327576	1017.794067	414.603943	502.028961	1034.298828	-76.911041	738.150177	802.824127	439.589737	598.377350	804.048523	-136.270905	682.976624	903.774353	302.573120	683.081543	902.058228	-12.833801	456.232269	949.270325	204.198044	453.656525	933.558655	94.887817	454.944397	941.414490	149.542931	471.894745	1109.997681	151.474945	766.694946	1071.761597	144.561462	628.973572	689.853394	381.913849	592.880981	458.994507	298.983612	533.648560	259.811249	337.132080	467.698090	69.114510	239.190033	411.168884	66.551765	188.365082	589.747559	45.708469	202.549820	667.519226	658.714111	-80.730392	803.387268	491.100159	14.048387	791.319641	306.874817	-41.973400	741.226318	84.087746	37.354607	695.541809	77.445930	87.616318	876.968750	66.152802	60.921871
298	2.97000000	605.826355	1332.848877	337.935211	601.169800	1348.065308	-17.603497	544.960571	1411.151367	154.762833	685.701599	1306.938599	160.105148	620.455139	1017.154846	414.550354	509.247498	1033.336914	-76.823761	751.468903	803.418640	438.637512	604.100372	802.380280	-135.840958	690.282471	902.559998	302.516083	691.812073	901.030762	-12.633942	463.907623	948.788269	203.235840	461.624908	932.816162	93.908966	462.766266	940.802216	148.572403	479.817230	1108.943848	150.918030	774.765076	1070.667603	144.918747	634.255981	689.088623	381.960907	595.060486	458.485962	299.142883	534.011108	259.838409	337.484619	467.779602	69.354424	239.176758	411.275665	67.047661	188.284149	589.672974	45.621315	202.561523	674.521423	657.635132	-81.482430	810.501648	490.234955	14.196589	807.983582	306.906891	-42.468914	770.044312	80.542702	36.826687	724.398254	71.645706	86.874573	907.017883	69.248741	60.856403
299	2.98000000	613.918823	1331.735718	337.416595	609.643616	1346.700317	-18.082008	553.185364	1409.938477	154.162109	693.907654	1305.654419	159.762817	631.365234	1016.373108	414.355377	516.717712	1032.208496	-76.847855	764.576477	803.915466	437.557617	609.794556	800.508636	-135.487411	697.718872	901.258240	302.422852	700.706543	899.786194	-12.445499	471.642944	948.117737	202.134979	469.723206	931.872437	92.811630	470.683075	939.995087	147.473305	487.801178	1107.775635	150.264282	782.940918	1069.465942	145.280975	639.865112	688.245850	381.967255	597.438843	457.934601	299.223206	534.557129	259.836151	337.740479	467.871552	69.626129	239.127914	411.412384	67.603912	188.151947	589.593994	45.535076	202.567764	681.314758	656.318604	-82.310661	817.561340	489.141998	14.272337	823.712830	307.277008	-43.109966	797.301392	77.798264	36.379189	751.777100	66.793571	86.243271	935.245850	72.665268	60.799149
300	2.99000000	621.930298	1330.506470	336.838409	618.183411	1345.209106	-18.634619	561.385559	1408.653198	153.472870	702.119080	1304.312256	159.375412	642.043823	1015.454834	414.022949	524.446472	1030.919189	-76.990341	777.456787	804.318756	436.353073	615.473633	798.447937	-135.219864	705.297913	899.882385	302.296783	709.753296	898.349426	-12.280888	479.445892	947.246948	200.902649	477.956848	930.729187	91.609299	478.701370	938.988068	146.255974	495.848541	1106.506714	149.523071	791.221802	1068.172241	145.632462	645.847778	687.306885	381.914276	600.049438	457.339661	299.203400	535.321289	259.810089	337.878052	467.975494	69.931679	239.038315	411.580994	68.221764	187.966049	589.513916	45.452316	202.567841	687.961609	654.784119	-83.176125	824.668579	487.884552	14.287601	838.480225	307.827209	-43.822369	822.681030	75.735847	36.050488	777.336060	62.815609	85.758156	961.340027	76.140923	60.805054
301	3.00000000	629.867554	1329.177856	336.201050	626.778687	1343.606689	-19.262844	569.560059	1407.312134	152.697006	710.335022	1302.929321	158.937683	652.478821	1014.410339	413.557648	532.436340	1029.479370	-77.256950	790.092987	804.634247	435.027481	621.152649	796.218536	-135.047600	713.031799	898.448608	302.139099	718.938721	896.753906	-12.153412	487.326904	946.171204	199.552429	486.329071	929.394592	90.320656	486.827988	937.782898	144.936543	503.960907	1105.152710	148.704483	799.605469	1066.807739	145.956070	652.237183	686.257812	381.784760	602.922974	456.702942	299.064636	536.324463	259.770813	337.885559	468.093414	70.274513	238.905762	411.781525	68.903770	187.728821	589.436646	45.375751	202.561600	694.542358	653.062195	-84.039436	831.914368	486.524048	14.254608	852.302063	308.355103	-44.511593	845.914185	74.216393	35.871891	800.778931	59.612782	85.447060	985.038025	79.400093	60.922314
302	3.01000000	637.738708	1327.770752	335.504822	635.416992	1341.912354	-19.967581	577.708130	1405.933594	151.837143	718.554199	1301.525269	158.444351	662.659851	1013.253906	412.964417	540.685059	1027.905762	-77.651833	802.467529	804.869202	433.585083	626.848297	793.846802	-134.979416	720.932983	896.975647	301.948120	728.247375	895.040771	-12.077377	495.298889	944.894287	198.104340	494.840820	927.883850	88.969055	495.069855	936.389069	143.536697	512.139648	1103.731689	147.819122	808.088379	1065.399292	146.233597	659.052551	685.090576	381.563477	606.087891	456.028839	298.791382	537.575012	259.732971	337.761169	468.228241	70.660362	238.731842	412.012604	69.655167	187.447769	589.366455	45.308182	202.549591	701.151855	651.194824	-84.864380	839.374512	485.117157	14.184810	865.213928	308.640991	-45.078209	866.795105	73.093246	35.864799	821.873230	57.071648	85.327263	1006.146301	82.175491	61.189056
